# Blender 3.4.1
# www.blender.org
mtllib orient_green_roofing_edge.mtl
o cap
v -0.500000 -0.500000 0.500000
v -0.500000 -0.322702 0.676031
v -0.500000 -0.500000 0.322681
v -0.500000 -0.322702 0.322681
v 0.500000 -0.500000 0.500000
v 0.500000 -0.322702 0.676031
v 0.500000 -0.500000 0.322681
v 0.500000 -0.322702 0.322681
v -0.500000 -0.245864 0.109053
v -0.500000 -0.377836 0.109053
v 0.500000 -0.377836 0.109053
v 0.500000 -0.245864 0.109053
vn -1.0000 -0.0000 -0.0000
vn 1.0000 -0.0000 -0.0000
vn -0.0000 -1.0000 -0.0000
vn -0.0000 1.0000 -0.0000
vn -0.0000 -0.0000 -1.0000
vn -0.0000 -0.8681 -0.4964
vn -0.0000 0.9410 0.3384
vt 0.000000 0.310472
vt 0.000000 0.000000
vt 0.000000 0.623216
vt 0.000000 0.623216
vt 1.000000 0.310472
vt 1.000000 0.000000
vt 1.000000 0.623216
vt 1.000000 0.623216
vt 0.000000 1.000000
vt 0.000000 1.000000
vt 1.000000 1.000000
vt 1.000000 1.000000
s 0
usemtl mat0
f 1/1/1 2/2/1 4/4/1 3/3/1
f 8/8/2 7/7/2 11/11/2 12/12/2
f 7/7/2 8/8/2 6/6/2 5/5/2
f 3/3/3 7/7/3 5/5/3 1/1/3
f 8/8/4 4/4/4 2/2/4 6/6/4
f 10/10/5 9/9/5 12/12/5 11/11/5
f 7/7/6 3/3/6 10/10/6 11/11/6
f 4/4/7 8/8/7 12/12/7 9/9/7
f 3/3/1 4/4/1 9/9/1 10/10/1
