# Blender 3.4.1
# www.blender.org
mtllib orient_rice_wallpaper.mtl
o geometry
v 0.450000 -0.500000 0.050000
v 0.450000 0.500000 0.050000
v 0.450000 -0.500000 -0.050000
v 0.450000 0.500000 -0.050000
v 0.500000 -0.500000 0.050000
v 0.500000 0.500000 0.050000
v 0.500000 -0.500000 -0.050000
v 0.500000 0.500000 -0.050000
v -0.500000 -0.500000 0.012500
v -0.500000 0.450000 0.012500
v -0.500000 -0.500000 -0.012500
v -0.500000 0.450000 -0.012500
v 0.450000 -0.500000 0.012500
v 0.450000 0.450000 0.012500
v 0.450000 -0.500000 -0.012500
v 0.450000 0.450000 -0.012500
v -0.500000 0.500000 0.050000
v 0.450000 0.500000 0.050000
v -0.500000 0.500000 -0.050000
v 0.450000 0.500000 -0.050000
v -0.500000 0.450000 0.050000
v 0.450000 0.450000 0.050000
v -0.500000 0.450000 -0.050000
v 0.450000 0.450000 -0.050000
vn -1.0000 -0.0000 -0.0000
vn -0.0000 -0.0000 -1.0000
vn 1.0000 -0.0000 -0.0000
vn -0.0000 -0.0000 1.0000
vn -0.0000 -1.0000 -0.0000
vn -0.0000 1.0000 -0.0000
vt 0.875323 0.000000
vt 0.874912 0.000000
vt 0.876758 0.876076
vt 0.875323 1.000000
vt 0.874912 1.000000
vt 0.876758 0.876076
vt 0.999732 0.000000
vt 0.874912 0.000000
vt 0.876758 0.999123
vt 0.999732 1.000000
vt 0.874912 1.000000
vt 0.876758 0.999123
vt 0.875323 0.000000
vt 1.000000 0.000000
vt 1.000000 0.876076
vt 0.875323 1.000000
vt 1.000000 1.000000
vt 1.000000 0.876076
vt 1.000000 0.000000
vt 0.999732 0.000000
vt 1.000000 0.999123
vt 1.000000 1.000000
vt 0.999732 1.000000
vt 1.000000 0.999123
vt 0.875365 0.000000
vt 0.000000 0.000000
vt 0.000000 0.876272
vt 0.875365 0.876366
vt 0.000000 0.873047
vt 0.999690 0.000000
vt 0.000000 0.000000
vt 0.000000 0.998927
vt 0.999690 0.876366
vt 0.000000 0.873047
vt 0.873047 0.000000
vt 0.876758 0.876272
vt 0.873047 0.873047
vt 0.873047 0.000000
vt 0.876758 0.998927
vt 0.873047 0.873047
vt 0.000000 0.876076
vt 0.000000 1.000000
vt 0.875323 1.000000
vt 0.876758 0.876076
vt 0.874912 1.000000
vt 0.000000 0.999123
vt 0.000000 1.000000
vt 0.999732 1.000000
vt 0.876758 0.999123
vt 0.874912 1.000000
vt 0.000000 0.876076
vt 0.000000 0.875049
vt 0.875323 0.876366
vt 0.876758 0.876076
vt 0.874912 0.875049
vt 0.000000 0.875049
vt 0.000000 0.999123
vt 0.999732 0.876366
vt 0.874912 0.875049
vt 0.876758 0.999123
s 0
usemtl Material.001
f 1/1/1 2/4/1 4/10/1 3/7/1
f 3/8/2 4/11/2 8/22/2 7/19/2
f 7/20/3 8/23/3 6/16/3 5/13/3
f 5/14/4 6/17/4 2/5/4 1/2/4
f 3/9/5 7/21/5 5/15/5 1/3/5
f 8/24/6 4/12/6 2/6/6 6/18/6
f 9/25/1 10/28/1 12/33/1 11/30/1
f 11/31/2 12/34/2 16/40/2 15/38/2
f 13/35/4 14/37/4 10/29/4 9/26/4
f 11/32/5 15/39/5 13/36/5 9/27/5
f 17/41/6 18/44/6 20/49/6 19/46/6
f 19/47/2 20/50/2 24/59/2 23/56/2
f 23/57/5 24/60/5 22/54/5 21/51/5
f 21/52/4 22/55/4 18/45/4 17/42/4
f 19/48/1 23/58/1 21/53/1 17/43/1
